<mxfile host="app.diagrams.net" modified="2021-02-16T17:44:00.298Z" agent="5.0 (Windows)" etag="YnXC6H3hBBLS23Mmy6Yr" version="14.1.8" type="github">
  <diagram id="CYzmzR_TMUYCj8WLfeWa" name="Page-1">
    <mxGraphModel dx="1470" dy="748" grid="1" gridSize="10" guides="1" tooltips="1" connect="1" arrows="1" fold="1" page="1" pageScale="1" pageWidth="1169" pageHeight="827" math="0" shadow="0">
      <root>
        <mxCell id="0" />
        <mxCell id="1" parent="0" />
        <mxCell id="Xn9P-yLoD2EliFYj8Yuh-2" value="&lt;font style=&quot;font-size: 18px&quot;&gt;LogIn&lt;/font&gt;" style="rounded=0;whiteSpace=wrap;html=1;fillColor=#4C0099;" vertex="1" parent="1">
          <mxGeometry x="80" y="200" width="160" height="80" as="geometry" />
        </mxCell>
        <mxCell id="Xn9P-yLoD2EliFYj8Yuh-3" value="&lt;font style=&quot;font-size: 18px&quot;&gt;Main-Menu&lt;/font&gt;" style="rounded=0;whiteSpace=wrap;html=1;fillColor=#4C0099;" vertex="1" parent="1">
          <mxGeometry x="320" y="200" width="160" height="80" as="geometry" />
        </mxCell>
        <mxCell id="Xn9P-yLoD2EliFYj8Yuh-4" value="" style="endArrow=classic;html=1;exitX=1;exitY=0.5;exitDx=0;exitDy=0;entryX=0;entryY=0.5;entryDx=0;entryDy=0;" edge="1" parent="1" source="Xn9P-yLoD2EliFYj8Yuh-2" target="Xn9P-yLoD2EliFYj8Yuh-3">
          <mxGeometry width="50" height="50" relative="1" as="geometry">
            <mxPoint x="260" y="360" as="sourcePoint" />
            <mxPoint x="310" y="310" as="targetPoint" />
          </mxGeometry>
        </mxCell>
        <mxCell id="Xn9P-yLoD2EliFYj8Yuh-5" value="Component" style="rounded=0;whiteSpace=wrap;html=1;fillColor=#0066CC;" vertex="1" parent="1">
          <mxGeometry x="280" y="40" width="160" height="40" as="geometry" />
        </mxCell>
        <mxCell id="Xn9P-yLoD2EliFYj8Yuh-6" value="Site" style="rounded=0;whiteSpace=wrap;html=1;fillColor=#4C0099;" vertex="1" parent="1">
          <mxGeometry x="80" width="160" height="80" as="geometry" />
        </mxCell>
        <mxCell id="Xn9P-yLoD2EliFYj8Yuh-7" value="Dropdown-Menu" style="rounded=0;whiteSpace=wrap;html=1;fillColor=#0066CC;" vertex="1" parent="1">
          <mxGeometry x="560" y="190" width="160" height="40" as="geometry" />
        </mxCell>
        <mxCell id="Xn9P-yLoD2EliFYj8Yuh-8" value="Redirect-Buttons" style="rounded=0;whiteSpace=wrap;html=1;fillColor=#0066CC;" vertex="1" parent="1">
          <mxGeometry x="560" y="250" width="160" height="40" as="geometry" />
        </mxCell>
        <mxCell id="Xn9P-yLoD2EliFYj8Yuh-9" value="" style="endArrow=none;html=1;entryX=0;entryY=0.5;entryDx=0;entryDy=0;exitX=1;exitY=0.25;exitDx=0;exitDy=0;" edge="1" parent="1" source="Xn9P-yLoD2EliFYj8Yuh-3" target="Xn9P-yLoD2EliFYj8Yuh-7">
          <mxGeometry width="50" height="50" relative="1" as="geometry">
            <mxPoint x="460" y="350" as="sourcePoint" />
            <mxPoint x="510" y="300" as="targetPoint" />
          </mxGeometry>
        </mxCell>
        <mxCell id="Xn9P-yLoD2EliFYj8Yuh-10" value="" style="endArrow=none;html=1;entryX=0;entryY=0.5;entryDx=0;entryDy=0;exitX=1;exitY=0.75;exitDx=0;exitDy=0;" edge="1" parent="1" source="Xn9P-yLoD2EliFYj8Yuh-3" target="Xn9P-yLoD2EliFYj8Yuh-8">
          <mxGeometry width="50" height="50" relative="1" as="geometry">
            <mxPoint x="460" y="360" as="sourcePoint" />
            <mxPoint x="510" y="310" as="targetPoint" />
          </mxGeometry>
        </mxCell>
      </root>
    </mxGraphModel>
  </diagram>
</mxfile>
